<svg width="75" height="75" viewBox="0 0 75 75" fill="none" xmlns="http://www.w3.org/2000/svg">
<g clip-path="url(#clip0_202_21)">
<path d="M60.031 74.5H15.0465C7.02044 74.5 0.5 68.0504 0.5 60.031V15.0465C0.5 7.02382 7.02382 0.5 15.0465 0.5H60.031C68.0537 0.5 74.5776 7.02382 74.5776 15.0465V60.0288C74.5013 68.0549 68.0521 74.5 60.031 74.5Z" stroke="white"/>
<path d="M27.079 29.4265L26.5811 26.0122C26.51 25.372 26.4388 24.9452 26.3677 24.5895C26.2966 24.8741 26.2254 25.2297 26.0832 25.6565L24.8739 29.4265H24.0203L22.8111 25.8699C22.6688 25.4431 22.5266 24.9452 22.4554 24.5184C22.4554 25.0163 22.3843 25.4431 22.3132 26.0833L21.8153 29.4265H20.9617L21.8153 23.5225H22.8111L24.0203 27.2214C24.1626 27.6482 24.3049 28.075 24.376 28.3595C24.4471 27.9327 24.5183 27.6482 24.6605 27.2214L25.9409 23.4514H26.9368L27.8615 29.3554H27.079V29.4265Z" fill="white"/>
<path d="M32.6984 29.4264L32.2005 28.0749H29.7109L29.213 29.4264H28.3594L30.4933 23.5225H31.4181L33.552 29.4264H32.6984ZM31.2047 25.3008C31.0624 25.0162 30.9913 24.7317 30.9201 24.4472C30.849 24.7317 30.7779 25.0162 30.6356 25.3719L29.8531 27.4347H31.916L31.2047 25.3008Z" fill="white"/>
<path d="M35.8993 29.4976C35.3302 29.4976 34.8323 29.4976 34.4055 29.4976V23.5936C34.8323 23.5936 35.5436 23.5936 36.1838 23.5936C38.1044 23.5936 39.1714 24.4472 39.1714 26.51C39.2425 28.4306 37.891 29.4976 35.8993 29.4976ZM36.1127 24.1627C35.8282 24.1627 35.4725 24.1627 35.2591 24.1627V28.7151C35.4725 28.7151 35.8282 28.7863 36.0416 28.7863C37.3931 28.7863 38.3889 28.0749 38.3889 26.4389C38.3889 24.9451 37.6776 24.1627 36.1127 24.1627Z" fill="white"/>
<path d="M40.3806 29.4264V23.5225H43.4393V24.1626H41.2342V26.0121H43.3682V26.6523H41.2342V28.7151H43.4393V29.4264H40.3806Z" fill="white"/>
<path d="M46.6404 29.4264V23.5225H47.4228V29.4264H46.6404Z" fill="white"/>
<path d="M52.7576 29.4264L50.4814 25.7987C50.1969 25.3719 49.9835 24.9451 49.8412 24.5894C49.8412 25.2296 49.9123 26.6523 49.9123 27.577V29.4264H49.1299V23.5225H50.1969L52.402 27.0791C52.6865 27.5059 52.8999 27.9326 53.1133 28.3594C53.1133 27.6481 53.0421 26.1543 53.0421 25.2296V23.5225H53.8246V29.4264H52.7576Z" fill="white"/>
<path d="M21.1038 51.1217V30.4934H33.1251V35.3304H26.7232V38.2468H32.7694V42.8704H26.7232V46.2136H33.1251V51.1217H21.1038Z" fill="white"/>
<path d="M45.0754 51.5485C38.4601 51.5485 36.7529 48.063 36.7529 43.6528V30.4934H42.4435V43.3683C42.4435 45.5734 43.0837 46.7826 45.431 46.7826C47.7073 46.7826 48.4186 45.7868 48.4186 43.226V30.4934H54.038V42.9415C54.038 48.9166 50.5525 51.5485 45.0754 51.5485Z" fill="white"/>
<path d="M35.5997 10.3154L32.73 8.22133H36.2202L37.3835 4.80872L38.4694 8.22133H42.0371L39.0899 10.3154L40.2532 13.7281L37.3835 11.6339L34.4363 13.7281L35.5997 10.3154Z" fill="white"/>
<path d="M35.5997 66.7788L32.73 64.7622H36.2202L37.3835 61.3496L38.4694 64.7622H42.0371L39.0899 66.7788L40.2532 70.1914L37.3835 68.0973L34.4363 70.1914L35.5997 66.7788Z" fill="white"/>
<path d="M23.8106 64.8398L20.9408 66.8563L22.0267 63.5212L19.157 61.4271H22.7247L23.8106 58.0145L24.8964 61.4271H28.4641L25.5944 63.5212L26.6803 66.8563L23.8106 64.8398Z" fill="white"/>
<path d="M13.5728 54.9121L10.7031 57.0063L11.7889 53.5936L8.91919 51.4995H12.4869L13.5728 48.0869L14.6586 51.4995H18.2263L15.3566 53.5936L16.4425 57.0063L13.5728 54.9121Z" fill="white"/>
<path d="M8.14363 39.09L5.27393 36.9959H8.84166L9.92749 33.5833L11.0133 36.9959H14.5811L11.7114 39.09L12.7972 42.425L9.92749 40.3309L7.05779 42.425L8.14363 39.09Z" fill="white"/>
<path d="M13.2627 25.8273L10.3154 27.9214L11.4788 24.5088L8.60913 22.4147H12.0993L13.2627 19.0021L14.3485 22.4147H17.9163L15.0466 24.5088L16.1324 27.9214L13.2627 25.8273Z" fill="white"/>
<path d="M21.3287 14.5813L18.459 12.4872H22.0267L23.1126 9.1521L24.2759 12.4872H27.7661L24.8964 14.5813L25.9823 17.9939L23.1126 15.8998L20.2429 17.9939L21.3287 14.5813Z" fill="white"/>
<path d="M50.8789 15.8998L48.0092 17.9939L49.095 14.5813L46.2253 12.4872H49.7931L50.8789 9.1521L51.9647 12.4872H55.5325L52.6628 14.5813L53.7486 17.9939L50.8789 15.8998Z" fill="white"/>
<path d="M59.7207 24.5089L56.7734 22.4148H60.3412L61.5046 19.0797L62.5904 22.4148H66.1581L63.2884 24.5089L64.3743 27.9215L61.5046 25.8274L58.5573 27.9215L59.7207 24.5089Z" fill="white"/>
<path d="M63.2884 38.392L60.4187 36.2979H63.9864L65.0723 32.8853L66.2357 36.2979H69.7258L66.8561 38.392L68.0195 41.8046L65.0723 39.7105L62.2026 41.8046L63.2884 38.392Z" fill="white"/>
<path d="M59.7207 52.5854L56.7734 50.4913H60.3412L61.5046 47.1562L62.5904 50.4913H66.1581L63.2884 52.5854L64.3743 55.998L61.5046 53.9039L58.5573 55.998L59.7207 52.5854Z" fill="white"/>
<path d="M51.1892 64.1417L48.3195 66.2358L49.4829 62.8232L46.5356 60.7291H50.1034L51.1892 57.394L52.3526 60.7291H55.9203L53.0506 62.8232L54.1365 66.2358L51.1892 64.1417Z" fill="white"/>
</g>
<defs>
<clipPath id="clip0_202_21">
<rect width="75" height="75" fill="white"/>
</clipPath>
</defs>
</svg>
