<svg width="336" height="669" viewBox="0 0 336 669" fill="none" xmlns="http://www.w3.org/2000/svg">
<g clip-path="url(#clip0_2_184)">
<path d="M323.751 451.379C312.129 432.033 288.202 418.665 266.613 425.232C246.129 431.461 234.373 452.109 220.94 468.787C206.988 486.117 188.795 500.779 167.37 506.757C145.945 512.735 121.109 508.883 104.899 493.648C87.3794 477.174 82.7603 451.395 80.8155 427.428C73.5693 338.168 89.9438 248.742 109.934 161.443C118.05 125.975 126.739 88.5625 115.996 53.8012C105.252 19.0399 66.8643 -9.97883 32.9938 3.27925C7.13031 13.4072 -5.40936 42.6848 -11.0479 69.8913C-25.8696 141.391 -11.6988 215.534 -15.5885 288.454C-17.7059 328.149 -25.9794 369.25 -50.6117 400.449C-75.244 431.641 -119.678 449.771 -156.254 434.23C-164.057 430.919 -171.828 425.483 -174.009 417.292C-175.122 413.119 -174.644 408.694 -173.969 404.434C-163.343 337.375 -106.848 281.464 -107.64 213.565C-107.805 199.687 -110.534 185.621 -117.317 173.508C-136.241 139.728 -188.407 131.145 -217.148 157.089C-248.29 185.19 -245.098 234.817 -233.703 275.196C-222.316 315.574 -205.118 357.686 -216.568 398.049C-225.367 429.068 -249.976 453.215 -276.757 471.156C-304.675 489.859 -337.134 503.713 -370.73 503.039C-384.383 502.764 -399.581 499.03 -406.678 487.364C-412.317 478.091 -411.282 466.316 -409.094 455.686C-400.522 414.013 -377.113 372.725 -387.489 331.468C-394.829 302.253 -420.198 278.381 -449.795 272.834C-479.399 267.288 -511.677 280.35 -529.095 304.928C-532.004 309.031 -534.435 313.354 -536.545 317.81C-537.266 392.314 -539.501 468.003 -518.5 540.114C-506.164 582.469 -486.253 621.436 -463.887 659.1C-438.855 674.962 -404.42 670.428 -378.682 655.122C-351.814 639.142 -332.225 613.645 -312.933 589.044C-293.641 564.442 -273.134 539.439 -245.349 525.122C-206.24 504.968 -158.34 509.385 -117.294 525.209C-76.2478 541.032 -40.1581 567.156 -2.99396 590.699C44.8748 621.02 95.8333 647.654 150.838 661.257C181.148 668.757 213.646 672.099 243.235 662.104C300.859 642.641 331.632 577.723 335.561 517.011C337.02 494.488 335.388 470.748 323.766 451.395L323.751 451.379Z" fill="#B4D8D6"/>
</g>
<defs>
<clipPath id="clip0_2_184">
<rect width="873" height="669" fill="white" transform="translate(-537 -1.52588e-05)"/>
</clipPath>
</defs>
</svg>
