<svg width="78" height="77" viewBox="0 0 78 77" fill="none" xmlns="http://www.w3.org/2000/svg">
<g clip-path="url(#clip0_202_10)">
<path d="M5.57917 19.5526C6.93018 21.2774 8.92334 22.9773 10.3661 25.1746C16.8376 34.5198 28.8883 54.0393 38.3036 74.3548C55.6833 64.0063 41.7479 39.1385 41.7479 39.1385L40.7388 42.4387C34.5925 29.0719 22.5919 22.231 22.5919 22.231L23.0256 25.1166C17.5381 18.2674 3.52764 15.5144 3.52764 15.5144C3.52764 15.5144 -0.97573 28.989 2.31006 37.1152L0 35.3241C0 35.3241 0.0667165 49.0723 8.73153 60.988L5.34566 60.2334C5.34566 60.2334 19.2477 82.962 36.1103 75.4991C36.1103 75.4991 21.808 43.7323 9.79066 25.4732C7.18871 21.7169 5.58751 19.5526 5.58751 19.5526H5.57917Z" fill="white"/>
<path d="M29.5306 10.5226C29.5306 11.3435 28.8634 12.0152 28.0294 12.0152C27.1955 12.0152 26.5283 11.3518 26.5283 10.5226C26.5283 9.69339 27.1955 9.03003 28.0294 9.03003C28.8634 9.03003 29.5306 9.69339 29.5306 10.5226Z" fill="white"/>
<path d="M53.3567 10.5226C53.3567 11.3435 52.6896 12.0152 51.8556 12.0152C51.0217 12.0152 50.3545 11.3518 50.3545 10.5226C50.3545 9.69339 51.0217 9.03003 51.8556 9.03003C52.6896 9.03003 53.3567 9.69339 53.3567 10.5226Z" fill="white"/>
<path d="M41.6062 1.49257C41.6062 2.31348 40.9391 2.98514 40.1051 2.98514C39.2712 2.98514 38.604 2.32177 38.604 1.49257C38.604 0.663364 39.2712 0 40.1051 0C40.9391 0 41.6062 0.663364 41.6062 1.49257Z" fill="white"/>
<path d="M77.5831 34.5281L75.2731 36.3192C78.5589 28.193 74.0555 14.7184 74.0555 14.7184C74.0555 14.7184 60.045 17.4713 54.5576 24.3206L54.9829 21.4349C54.9829 21.4349 47.4189 25.7551 41.231 34.2213C43.3325 38.0273 47.4606 46.3277 48.9034 54.8436C56.0337 42.0241 63.0389 30.8879 67.4589 24.503C68.9017 22.3056 70.6613 20.4731 72.0123 18.7483C72.0123 18.7483 70.5279 21.2774 67.9259 25.0337C61.5712 34.6856 54.5493 48.0027 49.337 58.4258C49.7874 64.8604 48.3029 71.0795 42.8238 75.2172C59.0693 80.947 72.2458 59.4291 72.2458 59.4291L68.86 60.1837C77.5164 48.2763 77.5915 34.5198 77.5915 34.5198L77.5831 34.5281Z" stroke="white" stroke-width="2" stroke-linecap="round" stroke-linejoin="round"/>
</g>
<defs>
<clipPath id="clip0_202_10">
<rect width="78" height="77" fill="white"/>
</clipPath>
</defs>
</svg>
