<svg width="70" height="75" viewBox="0 0 70 75" fill="none" xmlns="http://www.w3.org/2000/svg">
<path fill-rule="evenodd" clip-rule="evenodd" d="M25.1221 48.3623C8.4305 57.6826 0 52.3205 0 75.0002H70C70 53.1474 61.4885 57.7671 44.8743 48.366C42.0641 51.0048 38.7567 52.8203 35.1215 52.8203C31.4864 52.8203 27.9322 51.0048 25.1221 48.366V48.3623ZM33.6336 13.3963H36.197V10.0997H39.3386V7.54173H36.197V4.24506H33.6336V7.54173H30.5767V10.0997H33.6336V13.3963ZM50.2441 21.3973V5.64532C50.2441 5.64532 34.9558 -7.05253 19.7485 5.64532V21.3973C19.7485 21.3973 24.6249 16.8621 34.7901 16.6967C44.9553 16.5313 50.2441 21.3973 50.2441 21.3973ZM50.9881 25.1056C50.4946 24.7748 50.0784 24.9402 49.8316 25.4363C49.8316 25.4363 49.9127 24.7785 50.0821 23.7898L49.9163 23.6244C48.9256 22.6358 47.2719 21.6472 46.1154 21.0665C42.646 19.2509 38.6757 18.5086 34.7938 18.5931C30.9928 18.6739 27.1072 19.4163 23.6378 21.1474C22.4813 21.728 20.9934 22.7167 20.0837 23.6244L20.0026 23.709C20.0837 24.3705 20.2494 24.9438 20.4151 25.5209C20.4151 25.5209 19.7559 24.7785 18.9272 25.5209C17.9364 26.594 19.0082 29.0674 19.3397 30.3023C19.5864 31.2101 19.9179 31.7871 20.1647 32.2832V32.614C20.1647 33.5218 20.4962 34.1796 20.9934 34.1796C23.1406 42.1806 29.5049 48.9393 35.1252 48.9393C40.4141 48.9393 46.8594 42.1769 48.9256 34.1796C49.4228 34.1796 49.7506 33.4372 49.7506 32.614L49.6696 32.3678C50.0011 31.9561 50.2478 31.2946 50.5793 30.306C50.9108 29.2365 52.1483 25.9361 50.9918 25.1129L50.9881 25.1056Z" fill="white"/>
</svg>
