<svg width="42" height="74" viewBox="0 0 42 74" fill="none" xmlns="http://www.w3.org/2000/svg">
<path d="M19.0693 74V0H22.9604V74H19.0693ZM35.7921 22.2C35.4554 18.9047 33.9604 16.2839 31.3069 14.3375C28.6535 12.3911 25.3168 11.418 21.297 11.418C18.4653 11.418 15.9703 11.8901 13.8119 12.8344C11.6733 13.7786 9.9901 15.0891 8.76238 16.7656C7.55446 18.4229 6.9505 20.3115 6.9505 22.4313C6.9505 23.9922 7.29703 25.3604 7.9901 26.5359C8.68317 27.7115 9.61386 28.7232 10.7822 29.5711C11.9703 30.3997 13.2772 31.1128 14.703 31.7102C16.1485 32.3076 17.604 32.8086 19.0693 33.2133L25.4851 35.0055C27.4257 35.5258 29.3663 36.1906 31.3069 37C33.2475 37.8094 35.0198 38.8307 36.6238 40.0641C38.2475 41.2781 39.5446 42.7716 40.5149 44.5445C41.505 46.2982 42 48.4083 42 50.875C42 54.0354 41.1584 56.8779 39.4752 59.4023C37.7921 61.9268 35.3762 63.931 32.2277 65.4148C29.0792 66.8794 25.3069 67.6117 20.9109 67.6117C16.7723 67.6117 13.1782 66.9469 10.1287 65.6172C7.07921 64.2682 4.68317 62.4086 2.94059 60.0383C1.19802 57.668 0.217822 54.9219 0 51.8H5.70297C5.90099 54.1318 6.69307 56.107 8.07921 57.7258C9.46535 59.3445 11.2673 60.5779 13.4851 61.4258C15.703 62.2544 18.1782 62.6687 20.9109 62.6687C23.9406 62.6687 26.6337 62.1773 28.9901 61.1945C31.3663 60.1924 33.2277 58.8049 34.5743 57.032C35.9406 55.2398 36.6238 53.1586 36.6238 50.7883C36.6238 48.7841 36.0891 47.1075 35.0198 45.7586C33.9505 44.3904 32.4554 43.2437 30.5347 42.3187C28.6337 41.3937 26.4257 40.5747 23.9109 39.8617L16.6337 37.7805C11.8614 36.393 8.15842 34.4755 5.52475 32.0281C2.89109 29.5807 1.57426 26.4589 1.57426 22.6625C1.57426 19.4828 2.44554 16.6885 4.18812 14.2797C5.9505 11.8516 8.32673 9.96302 11.3168 8.61406C14.3267 7.24583 17.703 6.56172 21.4455 6.56172C25.2277 6.56172 28.5743 7.2362 31.4851 8.58516C34.396 9.93412 36.703 11.7938 38.4059 14.1641C40.1287 16.5151 41.0495 19.1937 41.1683 22.2H35.7921Z" fill="white"/>
</svg>
