<svg width="1728" height="625" viewBox="0 0 1728 625" fill="none" xmlns="http://www.w3.org/2000/svg">
<g clip-path="url(#clip0_2_126)">
<path d="M87.8952 403.066C41.8885 413 -10.2349 399.939 -36.3114 378.614L-36.3107 378.628C-62.3879 357.289 -67.2717 329.783 -65.4213 303.365C-60.4708 232.146 1.85537 153.199 124.489 124.402C187.444 109.623 257.427 110.083 322.945 115.621C441.836 125.672 552.794 151.332 657.327 181.627C738.493 205.14 817.47 231.791 906.524 245.902C995.551 260.013 1098.68 260.099 1181.5 232.459C1240.36 212.818 1282.94 181.496 1322.97 150.768C1363 120.041 1403.59 88.2316 1460.37 66.7616C1514.74 46.1858 1576.42 26.5516 1643.09 53.1068C1708.63 79.2118 1738.27 137.993 1767.2 186.075C1816.44 267.927 1816 356.426 1818.72 443.379C1814.47 448.798 1809.47 454.093 1803.47 459.188C1767.5 489.687 1698.95 508.327 1635.05 504.992C1571.15 501.657 1515.33 476.514 1497.88 443.218C1473.26 396.212 1521.14 345.576 1537.15 296.085C1541.24 283.459 1542.8 269.612 1530.15 259.406C1514.24 246.55 1481.4 243.807 1452.06 244.93C1379.9 247.709 1310.98 267.289 1252.1 292.053C1193.22 316.817 1095.59 325.68 995.433 347.853C907.541 367.31 842.29 343.339 770.535 398.429C698.323 453.868 746.923 576.954 661.076 606.109C591.607 629.702 534.506 605.806 479.949 555.969C407.158 489.475 469.793 323.537 431.224 306.178C395.548 290.126 341.982 288.257 296.319 297.502C250.655 306.746 212.423 325.766 183.455 347.447C155.577 368.312 131.53 393.643 87.8952 403.066Z" fill="#B4D8D6"/>
</g>
<defs>
<clipPath id="clip0_2_126">
<rect width="1876.88" height="781.052" fill="white" transform="translate(1838.04 774.106) rotate(177.18)"/>
</clipPath>
</defs>
</svg>
